<?xml version="1.0" encoding="utf-8"?>
<!-- Generator: Adobe Illustrator 21.0.2, SVG Export Plug-In . SVG Version: 6.00 Build 0)  -->
<svg version="1.1" id="Layer_1" xmlns="http://www.w3.org/2000/svg" xmlns:xlink="http://www.w3.org/1999/xlink" x="0px" y="0px"
	 viewBox="0 0 509.7 509.7" style="enable-background:new 0 0 509.7 509.7;" xml:space="preserve">
<style type="text/css">
	.st0{fill:#E39700;}
	.st1{fill:#FFCB43;}
</style>
<g transform="translate(-1)">
	<path class="st0" d="M308.2,97.7c-1.2,1.2-2.8,1.9-4.5,1.9l-19.1,0c-3.5,0-6.4-2.9-6.4-6.4c0-3.5,2.9-6.4,6.4-6.4l19.1,0
		c3.5,0,6.4,2.9,6.4,6.4C310.1,95,309.4,96.6,308.2,97.7"/>
	<polygon class="st1" points="322.9,227.2 303.7,227.2 303.7,61.3 322.9,61.3 	"/>
	<path class="st0" d="M220.8,240v229.7c0,14.1,11.4,25.5,25.5,25.5s25.5-11.4,25.5-25.5V240L220.8,240z"/>
	<polygon class="st1" points="284.6,240 208,240 208,93.2 284.6,93.2 	"/>
	<polygon class="st0" points="284.6,93.2 208,93.2 208,61.3 284.6,61.3 	"/>
	<polygon class="st1" points="246.3,425.1 220.8,425.1 220.8,284.7 246.3,284.7 	"/>
</g>
</svg>
