<?xml version="1.0" encoding="utf-8"?>
<!-- Generator: Adobe Illustrator 21.0.2, SVG Export Plug-In . SVG Version: 6.00 Build 0)  -->
<svg version="1.1" id="Layer_1" xmlns="http://www.w3.org/2000/svg" xmlns:xlink="http://www.w3.org/1999/xlink" x="0px" y="0px"
	 viewBox="0 0 88 58" style="enable-background:new 0 0 88 58;" xml:space="preserve">
<style type="text/css">
	.st0{fill:#FFFFFF;}
</style>
<title>sound_wave</title>
<path class="st0" d="M63,2v54c0,1.1,0.9,2,2,2s2-0.9,2-2V2c0-1.1-0.9-2-2-2S63,0.9,63,2z M21,2v54c0,1.1,0.9,2,2,2s2-0.9,2-2V2
	c0-1.1-0.9-2-2-2S21,0.9,21,2z M35,8v42c0,1.1,0.9,2,2,2s2-0.9,2-2V8c0-1.1-0.9-2-2-2S35,6.9,35,8z M14,10v38c0,1.1,0.9,2,2,2
	s2-0.9,2-2V10c0-1.1-0.9-2-2-2S14,8.9,14,10z M84,11v36c0,1.1,0.9,2,2,2s2-0.9,2-2V11c0-1.1-0.9-2-2-2S84,9.9,84,11z M70,11v36
	c0,1.1,0.9,2,2,2s2-0.9,2-2V11c0-1.1-0.9-2-2-2S70,9.9,70,11z M56,11v36c0,1.1,0.9,2,2,2s2-0.9,2-2V11c0-1.1-0.9-2-2-2S56,9.9,56,11
	z M42,12v34c0,1.1,0.9,2,2,2s2-0.9,2-2V12c0-1.1-0.9-2-2-2S42,10.9,42,12z M28,12v34c0,1.1,0.9,2,2,2s2-0.9,2-2V12c0-1.1-0.9-2-2-2
	S28,10.9,28,12z M7,14v30c0,1.1,0.9,2,2,2s2-0.9,2-2V14c0-1.1-0.9-2-2-2S7,12.9,7,14z M77,16v26c0,1.1,0.9,2,2,2s2-0.9,2-2V16
	c0-1.1-0.9-2-2-2S77,14.9,77,16z M49,16v26c0,1.1,0.9,2,2,2s2-0.9,2-2V16c0-1.1-0.9-2-2-2S49,14.9,49,16z M0,20v18c0,1.1,0.9,2,2,2
	s2-0.9,2-2V20c0-1.1-0.9-2-2-2S0,18.9,0,20z"/>
</svg>
