<?xml version="1.0" encoding="utf-8"?>
<!-- Generator: Adobe Illustrator 21.0.2, SVG Export Plug-In . SVG Version: 6.00 Build 0)  -->
<svg version="1.1" id="Capa_1" xmlns="http://www.w3.org/2000/svg" xmlns:xlink="http://www.w3.org/1999/xlink" x="0px" y="0px"
	 viewBox="0 0 512 512" style="enable-background:new 0 0 512 512;" xml:space="preserve">
<style type="text/css">
	.st0{fill:#252839;}
</style>
<g>
	<path class="st0" d="M113,507.4c-1.3,0-2.5-0.3-3.7-0.9c-2.5-1.3-4.1-4-4.1-6.8V389.2C37.3,353.8,0,292,0,214.5
		C0,94.8,110,4.6,256,4.6s256,90.3,256,210c0,119.7-110,210-256,210c-4.8,0-9.5-0.3-14.2-0.5l-0.3,0l-124.2,82.2
		C116,507,114.5,507.4,113,507.4z M256,20.1c-137.1,0-240.5,83.6-240.5,194.5c0,51.6,17.5,121.7,100.9,162.9c2.6,1.3,4.3,4,4.3,7
		v100.9l114.3-75.6c1.4-0.9,3.1-1.5,4.7-1.3l2.9,0.2c4.4,0.2,8.9,0.5,13.4,0.5c137.1,0,240.5-83.6,240.5-194.5S393.1,20.1,256,20.1z
		 M509,216.6c0,111-113.3,201-253,201s-253-90-253-201s113.3-201,253-201S509,105.6,509,216.6z"/>
</g>
<polygon class="st0" points="115.7,360.3 115.7,494.3 245.7,410.3 "/>
</svg>
